<svg id="Layer_1" data-name="Layer 1" xmlns="http://www.w3.org/2000/svg" xmlns:xlink="http://www.w3.org/1999/xlink" viewBox="0 0 131.96 94.23"><defs><style>.cls-1{fill:none;}.cls-2{clip-path:url(#clip-path);}.cls-3{fill:#ecb832;}.cls-4{fill:url(#linear-gradient);}.cls-5,.cls-7,.cls-8{fill:#ce3829;}.cls-5,.cls-6,.cls-7,.cls-8{stroke:#fff;stroke-miterlimit:10;}.cls-5,.cls-6{stroke-width:0.75px;}.cls-6{fill:#b3b3b0;}.cls-7{font-size:14.12px;font-family:CooperBlack, Cooper Black;}.cls-7,.cls-8{stroke-width:0.5px;}</style><clipPath id="clip-path" transform="translate(17.33 -6.71)"><path class="cls-1" d="M66.93,18.22a1,1,0,0,1,.28.54.86.86,0,0,1,0,.28c-.15.53-.91.72-1.4,1A46.14,46.14,0,0,0,60.13,24a41.19,41.19,0,0,0-5.94-1.23,81.37,81.37,0,0,0-10.12-.49A37.34,37.34,0,0,1,54,17.91c2.8-.77,6.34-1.82,9.42-1.32a38.85,38.85,0,0,0-34,69.62.6.6,0,0,1,0-.2c.18-.52,1-.67,1.45-.94A45.41,45.41,0,0,0,36.7,81.4a41.14,41.14,0,0,0,5.87,1.52,83.24,83.24,0,0,0,10.09,1,37.42,37.42,0,0,1-10.1,3.87,30.69,30.69,0,0,1-7.68,1.09,38.85,38.85,0,0,0,32-70.64ZM48.64,76.93A24.24,24.24,0,1,1,72.89,52.68,24.25,24.25,0,0,1,48.64,76.93Z"/></clipPath><linearGradient id="linear-gradient" x1="5.76" y1="27.37" x2="98.76" y2="80.2" gradientUnits="userSpaceOnUse"><stop offset="0" stop-color="#92c04f"/><stop offset="0.2" stop-color="#7ead71" stop-opacity="0.7"/><stop offset="0.39" stop-color="#6e9e8e" stop-opacity="0.45"/><stop offset="0.57" stop-color="#6192a5" stop-opacity="0.25"/><stop offset="0.74" stop-color="#5889b5" stop-opacity="0.11"/><stop offset="0.89" stop-color="#5284bf" stop-opacity="0.03"/><stop offset="1" stop-color="#5082c2" stop-opacity="0"/></linearGradient></defs><title>kyunutri logo</title><g class="cls-2"><image width="4282" height="2855" transform="translate(7.5) rotate(5.16) scale(0.03)" xlink:href="top-view-burger-with-french-fries-plate.jpg"/></g><path class="cls-3" d="M6.45,42.5H93.28a19.12,19.12,0,0,1-.89,20.3H6.78C3.4,56.8,3.46,48.7,6.45,42.5Z" transform="translate(17.33 -6.71)"/><path class="cls-4" d="M6.67,42.5H93.5a19.12,19.12,0,0,1-.89,20.3H7C3.62,56.8,3.68,48.7,6.67,42.5Z" transform="translate(17.33 -6.71)"/><path class="cls-5" d="M72.41,41.5,77.05,37A14.3,14.3,0,0,0,92.4,25.63a6.23,6.23,0,0,0,0-2.91c-.73-2.61-3.53-3-5.87-2.91a12.84,12.84,0,0,0-7.81,3.26l-.07.06a13.75,13.75,0,0,0-4.43,11.53l-6.73,6.58Z" transform="translate(17.33 -6.71)"/><path class="cls-6" d="M54.73,41.22h2.71c1-10.32,2.08-20.36,3.11-30.67.08-.83-1-1.2-1.73-.87a3.63,3.63,0,0,0-1.58,1.88,53.46,53.46,0,0,0-4.56,11,18,18,0,0,0,.64,11.7,32.53,32.53,0,0,1,1.59,3.4A6.48,6.48,0,0,1,54.73,41.22Z" transform="translate(17.33 -6.71)"/><text class="cls-7" transform="translate(29.95 50.88) scale(0.91 1)">KYUNUTRI</text><path class="cls-8" d="M60.18,41.29c1.47,0,2.94,0,4.4,0,.52,0,1-3.06,1.06-3.48A9.39,9.39,0,0,1,67.57,34c1-1.18,2.41-1.88,3.42-3a13.46,13.46,0,0,0,2-4.48c1.47-4.05,3.52-7.85,5.06-11.88.22-.58,1.13-2.63.22-3s-1.63,1.93-1.82,2.51c-.6,1.79-1.3,3.54-2,5.3s-1.23,3.43-2,5.08a2.75,2.75,0,0,1-.61.92,1.07,1.07,0,0,1-.52.25c-.44.06-.43,0-.39-.35a8.6,8.6,0,0,1,.76-1.88l1.53-3.75,3.09-7.61c.16-.39.24-1-.17-1.11-.7-.22-1,1.36-1.24,1.78-.86,1.86-1.69,3.74-2.51,5.63l-1.49,3.43a11.56,11.56,0,0,1-1.41,3c-.37.42-1.45.71-1.13-.22.82-2.38,1.86-4.67,2.8-7,.54-1.33,1.06-2.66,1.6-4q.42-1,.85-2c.15-.34.8-1.36.27-1.67s-1.2,1.28-1.36,1.62q-.92,1.9-1.77,3.83-1.7,3.86-3.1,7.85c-.19.53-.61,1.17-1.13,1-1.07-.41.3-2.61.56-3.15.84-1.76,1.57-3.58,2.35-5.37.69-1.57,1.36-3.15,2.12-4.69a4.93,4.93,0,0,0,.5-1.21c.1-.54-.25-1-.71-.63a4.77,4.77,0,0,0-1.2,1.78c-1.61,3.25-2.84,6.68-4.42,9.95-1.08,2.23-2.35,4.47-2.54,6.94-.1,1.34.12,2.69.09,4a14.46,14.46,0,0,1-1.13,5c-.6,1.51-1.49,2.92-2,4.45" transform="translate(17.33 -6.71)"/></svg>